<?xml version="1.0" encoding="UTF-8" standalone="no"?>
<!-- Svg Vector Icons : http://www.onlinewebfonts.com/icon -->

<svg
   version="1.1"
   x="0px"
   y="0px"
   viewBox="0 0 612.21027 612.41809"
   enable-background="new 0 0 1000 1000"
   xml:space="preserve"
   id="svg10"
   sodipodi:docname="drone.svg"
   inkscape:version="1.1.2 (b8e25be833, 2022-02-05)"
   width="612.21027"
   height="612.41809"
   xmlns:inkscape="http://www.inkscape.org/namespaces/inkscape"
   xmlns:sodipodi="http://sodipodi.sourceforge.net/DTD/sodipodi-0.dtd"
   xmlns="http://www.w3.org/2000/svg"
   xmlns:svg="http://www.w3.org/2000/svg"><defs
   id="defs14" /><sodipodi:namedview
   id="namedview12"
   pagecolor="#ffffff"
   bordercolor="#666666"
   borderopacity="1.0"
   inkscape:pageshadow="2"
   inkscape:pageopacity="0.0"
   inkscape:pagecheckerboard="true"
   showgrid="false"
   showborder="true"
   inkscape:snap-bbox="true"
   inkscape:bbox-paths="true"
   inkscape:bbox-nodes="true"
   inkscape:snap-bbox-edge-midpoints="true"
   inkscape:snap-bbox-midpoints="true"
   inkscape:object-paths="true"
   inkscape:snap-intersection-paths="true"
   inkscape:snap-smooth-nodes="true"
   inkscape:snap-midpoints="true"
   inkscape:snap-object-midpoints="true"
   inkscape:snap-center="true"
   inkscape:snap-text-baseline="true"
   inkscape:snap-nodes="true"
   inkscape:zoom="0.5"
   inkscape:rotation="1"
   inkscape:cx="97.51334"
   inkscape:cy="372.35487"
   inkscape:window-width="1920"
   inkscape:window-height="1017"
   inkscape:window-x="-8"
   inkscape:window-y="-8"
   inkscape:window-maximized="1"
   inkscape:current-layer="g3304"
   borderlayer="false"
   fit-margin-top="0"
   fit-margin-left="0"
   fit-margin-right="0"
   fit-margin-bottom="0"
   inkscape:snap-global="false" />
<metadata
   id="metadata2"> Svg Vector Icons : http://www.onlinewebfonts.com/icon </metadata>

<g
   id="g1367"
   transform="translate(2.7529633e-4)"><g
     id="g3421"
     transform="matrix(0.62470987,0,0,0.62470987,207.87018,22.455258)"
     inkscape:export-filename="C:\Users\Samuel Erdö\Desktop\g3421.png"
     inkscape:export-xdpi="96"
     inkscape:export-ydpi="96"><g
       id="g3304"><ellipse
         style="fill:#1e2735;fill-opacity:1;fill-rule:evenodd;stroke-width:2.26435"
         id="path38"
         cx="156.45499"
         cy="453.65149"
         rx="489.20218"
         ry="489.59659" /><ellipse
         style="fill:#010409;fill-opacity:1;stroke-width:1.03242"
         id="ellipse1895"
         cx="379.151"
         cy="232.43832"
         rx="129.20677"
         ry="129.20949" /><ellipse
         style="fill:#010409;fill-opacity:1;stroke-width:1.02926"
         id="ellipse1897"
         cx="-64.654503"
         cy="675.99634"
         rx="128.81157"
         ry="128.81427" /><path
         id="path2660"
         style="fill:#010409;fill-opacity:1;stroke:#000000;stroke-width:1px;stroke-linecap:butt;stroke-linejoin:miter;stroke-opacity:1"
         d="M 38.580078,149.13477 -160.02148,323.81836 385.58984,869.42969 396.6582,880.49805 A 489.995,490.16245 0 0 0 583.30273,693.85742 Z" /><ellipse
         style="fill:#010409;fill-opacity:1;stroke-width:1.02539"
         id="ellipse2748"
         cx="-65.018494"
         cy="232.54436"
         rx="128.66489"
         ry="127.99377" /><path
         id="path2898"
         style="fill:#010409;fill-opacity:1;stroke:none;stroke-width:5;stroke-linecap:round;stroke-linejoin:round;stroke-miterlimit:4;stroke-dasharray:none;stroke-opacity:1;paint-order:normal"
         d="m 464.73438,131.69531 -630.10743,630.10938 7.98047,8.41797 141.14788,142.40372 c 55.383471,21.4914 114.09744,31.5194 173.49275,31.75253 129.95488,2.9e-4 254.58726,-51.6415 346.47937,-143.56475 91.89212,-91.92325 143.51663,-216.59807 143.51672,-346.59736 -2.6e-4,-58.06005 -10.3324,-115.97092 -30.61216,-170.53257 -49.6704,-49.87094 -101.4395,-101.53082 -151.8976,-151.98892 z"
         sodipodi:nodetypes="cccccsccc" /><g
         id="g8"
         transform="matrix(-0.00141502,-0.72245006,0.72245006,0,-203.26752,815.43875)"
         style="fill:#c6ced5;fill-opacity:1;stroke:none;stroke-width:6.92089;stroke-miterlimit:4;stroke-dasharray:none;stroke-opacity:1"><g
           transform="matrix(0.1,0,0,-0.1,0,512)"
           id="g6"
           style="fill:#c6ced5;fill-opacity:1;stroke:none;stroke-width:69.2089;stroke-miterlimit:4;stroke-dasharray:none;stroke-opacity:1"><path
             d="M 1611.2,5001.1 C 1220,4926.3 909.3,4761.4 627.4,4473.7 380,4224.4 220.8,3940.5 134.5,3597.3 c -46,-182.2 -46,-638.6 0,-820.8 90.1,-356.7 245.5,-631 512.1,-893.7 193.7,-191.8 381.7,-316.4 615.6,-410.4 235.9,-92.1 370.1,-115.1 669.3,-115.1 349,0 425.8,17.3 855.4,193.7 26.8,9.6 360.5,-443 416.1,-567.7 40.3,-84.4 40.3,-117 40.3,-864.9 0,-747.9 0,-780.5 -40.3,-864.9 -55.6,-124.6 -389.3,-577.3 -416.1,-567.7 -429.6,176.4 -506.3,193.7 -855.4,193.7 -391.2,0 -659.7,-74.8 -978.1,-272.3 -184.1,-113.2 -466,-395.1 -579.2,-579.2 -197.5,-318.3 -272.3,-586.8 -272.3,-978.1 0,-306.9 23,-435.4 124.7,-688.5 180.3,-450.7 579.2,-845.7 1035.6,-1026 235.9,-92.1 370.1,-115.1 669.3,-115.1 391.2,0 659.7,74.8 978.1,272.3 184.1,113.2 466,395.1 579.2,579.2 197.5,318.3 272.3,586.8 272.3,978.1 0,349 -17.3,425.8 -193.7,855.4 -9.6,26.8 439.2,358.6 556.2,410.4 117,51.8 283.8,72.9 454.5,55.6 184.1,-19.2 659.7,-19.2 843.8,0 170.7,17.2 337.5,-3.8 454.5,-55.6 46,-21.1 193.7,-117 324.1,-212.9 186,-136.2 237.8,-182.2 226.3,-207.1 -153.4,-351 -209.1,-621.4 -193.7,-932.1 24.9,-487.1 205.2,-880.3 558.1,-1227.4 249.3,-243.6 525.5,-397 866.8,-483.3 182.2,-46 638.6,-46 820.8,0 349,88.2 629,245.5 886,500.6 255.1,257 412.3,537 500.6,886 46,182.2 46,638.6 0,820.8 -86.3,341.4 -239.7,617.5 -483.3,866.9 -347.1,352.9 -740.3,533.1 -1227.4,558.1 -310.7,15.3 -581.1,-40.3 -932.1,-193.7 -24.9,-11.5 -71,40.3 -207.1,226.3 -95.9,130.4 -191.8,278.1 -212.9,324.1 -51.8,117 -71,281.9 -55.6,464.1 19.2,197.5 19.2,627.1 0,824.7 -15.3,182.2 3.8,347.1 55.6,464.1 51.8,117 383.6,565.8 410.4,556.2 429.6,-176.4 506.3,-193.7 855.3,-193.7 391.2,0 659.7,74.8 978.1,272.3 184.1,113.2 466,395.1 579.2,579.2 197.5,318.4 272.3,586.9 272.3,978.1 0,385.5 -61.4,615.6 -255.1,949.3 -113.1,195.6 -398.9,487.1 -596.4,607.9 -320.3,197.5 -586.8,272.3 -978.1,272.3 -391.2,0 -659.7,-74.8 -978.1,-272.3 -184.1,-113.2 -466,-395.1 -579.2,-579.2 -197.5,-318.3 -272.3,-586.8 -272.3,-978.1 0,-349 17.3,-425.8 193.7,-855.3 9.6,-26.9 -443,-360.5 -567.7,-416.2 -84.4,-38.4 -118.9,-40.3 -864.9,-40.3 -746,0 -780.6,1.9 -864.9,40.3 -124.7,55.6 -577.3,389.3 -567.7,416.2 176.4,429.6 193.7,506.3 193.7,855.3 0,299.2 -23,433.4 -115.1,669.3 -90.1,226.3 -218.6,421.9 -400.8,607.9 -257,262.7 -521.7,418.1 -870.7,508.2 -189.6,51.8 -571.3,65.2 -763.1,28.8 z M 2295.9,4677 c 191.8,-53.7 322.2,-109.3 464.1,-203.3 609.9,-398.9 853.4,-1133.4 606,-1820 -38.4,-103.6 -65.2,-153.4 -78.6,-143.8 -13.4,7.7 -218.6,155.3 -458.4,329.9 -383.6,276.2 -437.3,322.2 -437.3,366.3 0,28.8 -9.6,78.6 -21.1,113.2 -21.1,57.5 -17.3,63.3 118.9,209 170.7,182.2 299.2,351 347.1,462.2 34.5,72.9 34.5,86.3 9.6,111.2 -24.9,24.9 -38.4,24.9 -111.2,-9.6 -111.2,-47.9 -280,-176.4 -462.2,-347.1 -145.7,-136.2 -151.5,-140 -209,-118.9 -155.4,53.7 -316.4,9.6 -448.8,-122.7 -132.3,-132.3 -176.4,-293.4 -122.7,-448.8 21.1,-57.5 17.2,-63.3 -118.9,-209 -170.7,-182.2 -299.2,-351 -347.1,-462.2 -34.5,-72.9 -34.5,-86.3 -9.6,-111.3 24.9,-24.9 38.4,-24.9 111.2,9.6 111.2,47.9 280,176.4 462.2,347.1 145.7,136.2 151.5,140 209.1,118.9 34.5,-11.5 84.4,-21.1 113.1,-21.1 44.1,0 90.1,-53.7 366.3,-435.3 174.5,-241.6 322.2,-446.8 329.8,-460.3 9.6,-13.4 -40.3,-40.3 -143.8,-78.6 -686.6,-247.4 -1421.1,-3.8 -1820,606 -366.3,558.1 -316.4,1304.1 117,1816.2 230.1,270.4 523.6,443 882.2,519.7 153.5,32.5 502.5,22.9 652.1,-17.3 z m 6137,0 c 291.5,-80.6 519.7,-209 717.3,-408.5 598.3,-598.4 598.3,-1563 0,-2161.4 -356.7,-358.6 -870.7,-519.7 -1354,-427.7 -187.9,36.4 -421.9,124.7 -404.6,153.4 5.7,11.5 155.3,216.7 329.9,458.3 276.2,379.7 322.2,435.3 366.3,435.3 28.8,0 78.6,9.6 113.2,21.1 57.5,21.1 63.3,17.2 209,-118.9 182.2,-170.7 351,-299.2 462.2,-347.1 72.9,-34.5 86.3,-34.5 111.2,-9.6 24.9,24.9 24.9,38.4 -9.6,111.3 -47.9,111.2 -176.4,280 -347.1,462.2 -136.2,145.7 -140,151.5 -118.9,209 53.7,155.3 9.6,316.4 -122.7,448.8 -132.3,132.3 -293.4,176.4 -448.8,122.7 -57.5,-21.1 -63.3,-17.3 -209,118.9 -182.2,170.7 -351,299.2 -462.2,347.1 -72.9,34.5 -86.3,34.5 -111.2,9.6 -24.9,-24.9 -24.9,-38.4 9.6,-111.2 47.9,-111.2 176.4,-280 347.1,-462.2 136.2,-145.7 140,-151.5 118.9,-209 -11.5,-34.5 -21.1,-84.4 -21.1,-113.2 0,-44.1 -53.7,-90.1 -433.4,-366.3 -239.7,-172.6 -444.9,-320.3 -458.4,-328 -30.7,-19.2 -117,205.2 -155.3,402.7 -84.4,439.2 42.2,911 337.5,1260 230.1,270.4 523.6,443 882.2,519.7 153.2,32.8 502.3,23.2 651.9,-17 z M 2203.8,-1442.7 c 197.5,-38.4 421.9,-124.7 402.7,-155.4 -7.7,-13.4 -155.3,-218.6 -327.9,-458.3 -276.2,-379.7 -322.2,-433.4 -366.3,-433.4 -28.8,0 -78.6,-9.6 -113.1,-21.1 -57.5,-21.1 -63.3,-17.3 -209.1,118.9 -182.2,170.7 -351,299.2 -462.2,347.1 -72.9,34.5 -86.3,34.5 -111.2,9.6 -24.9,-24.9 -24.9,-38.4 9.6,-111.2 47.9,-111.2 176.4,-280 347.1,-462.2 136.2,-145.8 140,-151.5 118.9,-209 -115.1,-328 243.5,-686.6 571.5,-571.5 57.5,21.1 63.3,17.3 209,-118.9 182.2,-170.7 351,-299.2 462.2,-347.1 72.9,-34.5 86.3,-34.5 111.2,-9.6 24.9,24.9 24.9,38.4 -9.6,111.2 -47.9,111.3 -176.4,280 -347.1,462.2 -136.2,145.7 -140,151.5 -118.9,209 11.5,34.5 21.1,84.4 21.1,113.2 0,44.1 55.6,90.1 437.3,366.3 239.7,174.5 444.9,324.1 456.5,329.9 28.8,17.3 117,-216.7 153.4,-404.6 92.1,-483.3 -69.1,-997.3 -427.7,-1354 -510.1,-510.3 -1311.7,-596.6 -1908.2,-205.4 -604.1,397 -851.5,1127.7 -611.8,1808.5 247.4,696.2 991.5,1123.8 1712.6,985.8 z m 6229.1,-17.3 c 291.5,-80.5 519.7,-209.1 717.3,-408.5 502.5,-502.5 594.5,-1277.3 222.5,-1879.5 -448.9,-732.6 -1421.2,-955 -2132.7,-489 -609.9,398.9 -853.4,1133.4 -606,1820 38.4,103.6 65.2,153.4 78.6,143.8 13.4,-7.7 218.6,-155.3 460.3,-329.9 381.7,-276.2 435.4,-322.2 435.4,-366.3 0,-28.8 9.6,-78.6 21.1,-113.2 21.1,-57.5 17.3,-63.3 -124.7,-214.8 -166.8,-176.4 -303,-362.5 -349,-467.9 -25,-63.3 -26.9,-76.7 -1.9,-99.7 24.9,-24.9 38.4,-24.9 111.2,9.6 111.3,47.9 280,176.4 462.2,347.1 145.7,136.2 151.5,140 209,118.9 155.4,-53.7 316.4,-9.6 448.8,122.7 132.3,132.3 176.4,293.4 122.7,448.8 -21.1,57.5 -17.3,63.3 118.9,209 170.7,182.2 299.2,351 347.1,462.2 34.5,72.9 34.5,86.3 9.6,111.2 -23,24.9 -36.4,23 -99.7,-1.9 -105.5,-46 -291.5,-182.2 -468,-349 -151.5,-141.9 -157.2,-145.8 -214.8,-124.7 -34.5,11.5 -84.4,21.1 -113.2,21.1 -44.1,0 -90.1,55.6 -366.3,437.3 -174.5,239.7 -324.1,444.9 -329.9,456.5 -15.3,26.8 207.1,113.1 389.3,153.4 153.5,32.6 502.6,23.1 652.2,-17.2 z"
             id="path4"
             style="fill:#c6ced5;fill-opacity:1;stroke:none;stroke-width:69.2089;stroke-miterlimit:4;stroke-dasharray:none;stroke-opacity:1" /></g></g></g></g></g></svg>
