<?xml version="1.0" encoding="UTF-8" standalone="no"?>
<!-- Svg Vector Icons : http://www.onlinewebfonts.com/icon -->

<svg
   sodipodi:docname="drone.svg"
   id="svg34"
   xml:space="preserve"
   enable-background="new 0 0 1000 1000"
   viewBox="0 0 696 277.39226"
   y="0px"
   x="0px"
   version="1.1"
   inkscape:version="1.1.2 (b8e25be833, 2022-02-05)"
   width="696"
   height="277.39224"
   xmlns:inkscape="http://www.inkscape.org/namespaces/inkscape"
   xmlns:sodipodi="http://sodipodi.sourceforge.net/DTD/sodipodi-0.dtd"
   xmlns="http://www.w3.org/2000/svg"
   xmlns:svg="http://www.w3.org/2000/svg"><defs
   id="defs38"><rect
     x="526"
     y="1054"
     width="574"
     height="216"
     id="rect15047" /><rect
     x="526"
     y="1054"
     width="574"
     height="216"
     id="rect46040" /><rect
     x="526"
     y="1054"
     width="574"
     height="216"
     id="rect46046" /></defs><sodipodi:namedview
   id="namedview36"
   pagecolor="#ffffff"
   bordercolor="#666666"
   borderopacity="1.0"
   inkscape:pageshadow="2"
   inkscape:pageopacity="0.0"
   inkscape:pagecheckerboard="true"
   showgrid="false"
   showborder="false"
   inkscape:snap-bbox="true"
   inkscape:bbox-paths="true"
   inkscape:bbox-nodes="true"
   inkscape:snap-bbox-edge-midpoints="true"
   inkscape:snap-bbox-midpoints="true"
   inkscape:object-paths="true"
   inkscape:snap-intersection-paths="true"
   inkscape:snap-smooth-nodes="true"
   inkscape:snap-midpoints="true"
   inkscape:snap-object-midpoints="true"
   inkscape:snap-center="true"
   showguides="true"
   inkscape:guide-bbox="true"
   inkscape:zoom="0.5"
   inkscape:cx="59"
   inkscape:cy="242"
   inkscape:window-width="1920"
   inkscape:window-height="1017"
   inkscape:window-x="-8"
   inkscape:window-y="-8"
   inkscape:window-maximized="1"
   inkscape:current-layer="g89493"
   fit-margin-top="0"
   fit-margin-left="0"
   fit-margin-right="0"
   fit-margin-bottom="0" />
<metadata
   id="metadata2"> Svg Vector Icons : http://www.onlinewebfonts.com/icon </metadata>
<g
   id="g32"
   transform="translate(-469.73062,-1155.064)"><g
     transform="matrix(0.1,0,0,-0.1,0,512)"
     id="g30"><g
       id="g88549"><g
         id="g88718"
         transform="matrix(0.89750414,0,0,0.89750414,678.00227,-737.36054)"><g
           id="g65485"
           transform="matrix(0.40428447,0,0,0.40428447,3948.1526,-4372.5759)"><g
             id="g41797"
             transform="matrix(0.520732,0,0,0.520732,-2474.7132,-3517.9337)" /><g
             id="g89493"
             transform="translate(3.4355408,-1.3692855)"><g
               aria-label="R C M RC - Manager"
               transform="matrix(12.880337,0,0,-12.880337,-289.10088,7650.4737)"
               id="text15045"
               style="font-size:85.3333px;line-height:1.25;font-family:'Segoe UI';-inkscape-font-specification:'Segoe UI';white-space:pre;shape-inside:url(#rect15047)" /><g
               id="g90304"
               transform="matrix(1.547524,0,0,1.547524,-716.11659,2668.4228)"><path
                 d="m 728.08337,1130.8643 -4.45833,-12.8749 q -1.29167,-3.7917 -3.375,-5.9584 -2.04167,-2.1666 -4.45833,-2.1666 h -0.70834 v 20.9999 h -17.99999 v -59.7499 h 23.91666 q 12.54166,0 18.49999,4.125 6,4.0833 6,12.2916 0,6.1667 -3.5,10.3334 -3.45833,4.1666 -10.33333,6.0416 v 0.1667 q 3.79167,1.1667 6.29166,3.7917 2.54167,2.625 4.54167,7.7916 l 5.875,15.2083 z m -1.70833,-40.7916 q 0,-3 -1.83334,-4.75 -1.83333,-1.75 -5.74999,-1.75 h -3.70834 v 13.6667 h 3.25 q 3.625,0 5.83333,-2.0417 2.20834,-2.0417 2.20834,-5.125 z"
                 style="font-weight:900;font-size:85.3333px;line-height:1.25;font-family:'Segoe UI';-inkscape-font-specification:'Segoe UI Heavy';text-align:center;text-anchor:middle;white-space:pre;shape-inside:url(#rect15047);fill:#00adb5"
                 id="path88639"
                 transform="matrix(12.880337,0,0,-12.880337,-289.10087,7650.4738)" /><path
                 d="m 823.45833,1129.2393 q -7.41666,2.6667 -17.12499,2.6667 -9.54167,0 -16.45833,-3.625 -6.91666,-3.6667 -10.58333,-10.375 -3.625,-6.75 -3.625,-15.5416 0,-9.4584 4.08333,-16.8334 4.08334,-7.375 11.54167,-11.375 7.45833,-4.0416 17.16666,-4.0416 7.74999,0 14.99999,1.875 v 16.625 q -2.5,-1.5 -5.95833,-2.3334 -3.45833,-0.8333 -7,-0.8333 -7.33333,0 -11.58333,4.2083 -4.20833,4.2084 -4.20833,11.4167 0,7.1667 4.20833,11.3333 4.25,4.125 11.33333,4.125 6.54167,0 13.20833,-3.3333 z"
                 style="font-weight:900;font-size:85.3333px;line-height:1.25;font-family:'Segoe UI';-inkscape-font-specification:'Segoe UI Heavy';text-align:center;text-anchor:middle;white-space:pre;shape-inside:url(#rect15047);fill:#00adb5"
                 id="path88641"
                 transform="matrix(12.880337,0,0,-12.880337,-289.10087,7650.4738)" /><path
                 d="m 911.16663,1130.8643 v -32.7499 q 0,-4.625 0.29167,-10.1667 l 0.125,-2.75 h -0.5 q -1.33333,7.0417 -2.04167,9.75 l -8.79166,35.9166 h -16.91666 l -9.20833,-35.4999 q -0.375,-1.3334 -1.95833,-10.1667 h -0.5 q 0.58333,14 0.58333,17.5 v 28.1666 h -15.79166 v -59.7499 h 26.95832 l 8.20833,32.4583 q 0.29167,1 0.75,4.0833 0.5,3.0417 0.625,4.7084 h 0.25 q 0.45834,-3.7917 1.45833,-8.9584 l 7.66667,-32.2916 h 26.54165 v 59.7499 z"
                 style="font-weight:900;font-size:85.3333px;line-height:1.25;font-family:'Segoe UI';-inkscape-font-specification:'Segoe UI Heavy';text-align:center;text-anchor:middle;white-space:pre;shape-inside:url(#rect15047);fill:#00adb5"
                 id="path88643"
                 transform="matrix(12.880337,0,0,-12.880337,-289.10087,7650.4738)" /><path
                 d="m 596.06259,1237.531 h -15.45833 l -9.29166,-15.375 q -1.04167,-1.75 -2,-3.125 -0.95833,-1.375 -1.95833,-2.3334 -0.95833,-1 -2.04167,-1.5 -1.04166,-0.5416 -2.29166,-0.5416 h -3.625 v 22.875 h -13.45833 v -59.75 h 21.33333 q 21.74999,0 21.74999,16.25 0,3.125 -0.95834,5.7917 -0.95833,2.625 -2.70833,4.75 -1.75,2.125 -4.25,3.6666 -2.45833,1.5417 -5.49999,2.4167 v 0.1666 q 1.33333,0.4167 2.58333,1.375 1.25,0.9167 2.41666,2.1667 1.16667,1.25 2.20834,2.7083 1.08333,1.4167 1.95833,2.7917 z m -36.66665,-49.6667 v 16.625 h 5.83333 q 4.33333,0 6.95833,-2.5 2.66667,-2.5416 2.66667,-6.2916 0,-7.8334 -9.375,-7.8334 z"
                 style="font-weight:bold;font-size:85.3333px;line-height:1.25;font-family:'Segoe UI';-inkscape-font-specification:'Segoe UI Bold';text-align:center;text-anchor:middle;white-space:pre;shape-inside:url(#rect15047);fill:#eeeeee;fill-opacity:1"
                 id="path88645"
                 transform="matrix(12.880337,0,0,-12.880337,-289.10087,7650.4738)" /><path
                 d="m 643.6459,1235.406 q -6.54166,3.1666 -17.08332,3.1666 -13.75,0 -21.62499,-8.0833 -7.875,-8.0833 -7.875,-21.5417 0,-14.3333 8.83333,-23.2499 8.875,-8.9167 22.99999,-8.9167 8.75,0 14.74999,2.2083 v 12.9584 q -5.99999,-3.5834 -13.66666,-3.5834 -8.41666,0 -13.58332,5.2917 -5.16667,5.2917 -5.16667,14.3333 0,8.6667 4.875,13.8333 4.875,5.125 13.12499,5.125 7.875,0 14.41666,-3.8333 z"
                 style="font-weight:bold;font-size:85.3333px;line-height:1.25;font-family:'Segoe UI';-inkscape-font-specification:'Segoe UI Bold';text-align:center;text-anchor:middle;white-space:pre;shape-inside:url(#rect15047);fill:#eeeeee;fill-opacity:1"
                 id="path88647"
                 transform="matrix(12.880337,0,0,-12.880337,-289.10087,7650.4738)" /><path
                 d="m 699.52088,1219.3643 h -22.79166 v -9.2083 h 22.79166 z"
                 style="font-weight:bold;font-size:85.3333px;line-height:1.25;font-family:'Segoe UI';-inkscape-font-specification:'Segoe UI Bold';text-align:center;text-anchor:middle;white-space:pre;shape-inside:url(#rect15047);fill:#eeeeee;fill-opacity:1"
                 id="path88649"
                 transform="matrix(12.880337,0,0,-12.880337,-289.10087,7650.4738)" /><path
                 d="m 803.72917,1237.531 h -13.29166 v -35.75 q 0,-5.7917 0.5,-12.7917 h -0.33334 q -1.04166,5.5 -1.875,7.9167 l -13.99999,40.625 h -11 l -14.24999,-40.2083 q -0.58333,-1.625 -1.875,-8.3334 h -0.375 q 0.54167,8.8334 0.54167,15.5 v 33.0417 h -12.125 v -59.75 h 19.70833 l 12.20833,35.4166 q 1.45833,4.25 2.125,8.5417 h 0.25 q 1.125,-4.9583 2.37499,-8.625 l 12.20833,-35.3333 h 19.20833 z"
                 style="font-weight:bold;font-size:85.3333px;line-height:1.25;font-family:'Segoe UI';-inkscape-font-specification:'Segoe UI Bold';text-align:center;text-anchor:middle;white-space:pre;shape-inside:url(#rect15047);fill:#eeeeee;fill-opacity:1"
                 id="path88651"
                 transform="matrix(12.880337,0,0,-12.880337,-289.10087,7650.4738)" /><path
                 d="m 851.52081,1237.531 h -12.45833 v -6.125 h -0.16667 q -4.29166,7.1666 -12.70832,7.1666 -6.20834,0 -9.79167,-3.5 -3.54166,-3.5416 -3.54166,-9.4166 0,-12.4167 14.70833,-14.3334 l 11.58332,-1.5416 q 0,-7 -7.58333,-7 -7.62499,0 -14.49999,4.5417 v -9.9167 q 2.75,-1.4167 7.5,-2.5 4.79166,-1.0833 8.70833,-1.0833 18.24999,0 18.24999,18.2083 z m -12.375,-17.3334 v -2.875 l -7.74999,1 q -6.41667,0.8334 -6.41667,5.7917 0,2.25 1.54167,3.7083 1.58333,1.4167 4.25,1.4167 3.70833,0 6.04166,-2.5417 2.33333,-2.5833 2.33333,-6.5 z"
                 style="font-weight:bold;font-size:85.3333px;line-height:1.25;font-family:'Segoe UI';-inkscape-font-specification:'Segoe UI Bold';text-align:center;text-anchor:middle;white-space:pre;shape-inside:url(#rect15047);fill:#eeeeee;fill-opacity:1"
                 id="path88653"
                 transform="matrix(12.880337,0,0,-12.880337,-289.10087,7650.4738)" /><path
                 d="m 903.1458,1237.531 h -13.125 v -23.7084 q 0,-9.9166 -7.08333,-9.9166 -3.41666,0 -5.625,2.625 -2.20833,2.625 -2.20833,6.6666 v 24.3334 h -13.16666 v -42.6667 h 13.16666 v 6.75 h 0.16667 q 4.70833,-7.7916 13.70833,-7.7916 14.16666,0 14.16666,17.5833 z"
                 style="font-weight:bold;font-size:85.3333px;line-height:1.25;font-family:'Segoe UI';-inkscape-font-specification:'Segoe UI Bold';text-align:center;text-anchor:middle;white-space:pre;shape-inside:url(#rect15047);fill:#eeeeee;fill-opacity:1"
                 id="path88655"
                 transform="matrix(12.880337,0,0,-12.880337,-289.10087,7650.4738)" /><path
                 d="m 949.06243,1237.531 h -12.45832 v -6.125 h -0.16667 q -4.29167,7.1666 -12.70833,7.1666 -6.20833,0 -9.79166,-3.5 -3.54167,-3.5416 -3.54167,-9.4166 0,-12.4167 14.70833,-14.3334 l 11.58333,-1.5416 q 0,-7 -7.58333,-7 -7.625,0 -14.49999,4.5417 v -9.9167 q 2.74999,-1.4167 7.49999,-2.5 4.79167,-1.0833 8.70833,-1.0833 18.24999,0 18.24999,18.2083 z m -12.37499,-17.3334 v -2.875 l -7.75,1 q -6.41666,0.8334 -6.41666,5.7917 0,2.25 1.54166,3.7083 1.58334,1.4167 4.25,1.4167 3.70833,0 6.04167,-2.5417 2.33333,-2.5833 2.33333,-6.5 z"
                 style="font-weight:bold;font-size:85.3333px;line-height:1.25;font-family:'Segoe UI';-inkscape-font-specification:'Segoe UI Bold';text-align:center;text-anchor:middle;white-space:pre;shape-inside:url(#rect15047);fill:#eeeeee;fill-opacity:1"
                 id="path88657"
                 transform="matrix(12.880337,0,0,-12.880337,-289.10087,7650.4738)" /><path
                 d="m 1001.3124,1232.656 q 0,11.875 -6.87498,18.375 -6.87499,6.5416 -19.91665,6.5416 -8.625,0 -13.66666,-2.4583 v -11.0833 q 6.58333,3.8333 13.29166,3.8333 6.66666,0 10.33333,-3.5417 3.66666,-3.5 3.66666,-9.5416 v -3.375 h -0.16667 q -4.49999,7.1666 -13.29166,7.1666 -8.16666,0 -12.95833,-5.75 -4.79166,-5.75 -4.79166,-15.4166 0,-10.8333 5.33333,-17.2083 5.33333,-6.375 14.04166,-6.375 7.79167,0 11.66666,6 h 0.16667 v -4.9584 h 13.16664 z m -12.99997,-15.625 v -3.375 q 0,-4.0417 -2.41667,-6.875 -2.375,-2.875 -6.20833,-2.875 -4.375,0 -6.875,3.4167 -2.5,3.4166 -2.5,9.6249 0,5.3334 2.375,8.4584 2.375,3.0833 6.5,3.0833 4.08333,0 6.58333,-3.125 2.54167,-3.1667 2.54167,-8.3333 z"
                 style="font-weight:bold;font-size:85.3333px;line-height:1.25;font-family:'Segoe UI';-inkscape-font-specification:'Segoe UI Bold';text-align:center;text-anchor:middle;white-space:pre;shape-inside:url(#rect15047);fill:#eeeeee;fill-opacity:1"
                 id="path88659"
                 transform="matrix(12.880337,0,0,-12.880337,-289.10087,7650.4738)" /><path
                 d="m 1050.6457,1219.9476 h -27.8333 q 0.6667,9.2917 11.7083,9.2917 7.0417,0 12.375,-3.3333 v 9.5 q -5.9166,3.1666 -15.375,3.1666 -10.3333,0 -16.0416,-5.7083 -5.7083,-5.75 -5.7083,-16 0,-10.625 6.1666,-16.8333 6.1667,-6.2083 15.1667,-6.2083 9.3333,0 14.4166,5.5416 5.125,5.5417 5.125,15.0417 z m -12.2083,-8.0833 q 0,-9.1666 -7.4167,-9.1666 -3.1666,0 -5.5,2.625 -2.2916,2.625 -2.7916,6.5416 z"
                 style="font-weight:bold;font-size:85.3333px;line-height:1.25;font-family:'Segoe UI';-inkscape-font-specification:'Segoe UI Bold';text-align:center;text-anchor:middle;white-space:pre;shape-inside:url(#rect15047);fill:#eeeeee;fill-opacity:1"
                 id="path88661"
                 transform="matrix(12.880337,0,0,-12.880337,-289.10087,7650.4738)" /><path
                 d="m 1086.3124,1206.7393 q -2.375,-1.2916 -5.5417,-1.2916 -4.2916,0 -6.7083,3.1666 -2.4167,3.125 -2.4167,8.5417 v 20.375 h -13.1666 v -42.6667 h 13.1666 v 7.9167 h 0.1667 q 3.125,-8.6667 11.25,-8.6667 2.0833,0 3.25,0.5 z"
                 style="font-weight:bold;font-size:85.3333px;line-height:1.25;font-family:'Segoe UI';-inkscape-font-specification:'Segoe UI Bold';text-align:center;text-anchor:middle;white-space:pre;shape-inside:url(#rect15047);fill:#eeeeee;fill-opacity:1"
                 id="path88663"
                 transform="matrix(12.880337,0,0,-12.880337,-289.10087,7650.4738)" /><circle
                 style="fill:#393e46;fill-opacity:1;stroke-width:62.4894;stroke-linecap:round;stroke-linejoin:round"
                 id="path2661"
                 cx="12000.869"
                 cy="7340.2222"
                 transform="matrix(0.5207319,0,0,-0.5207319,-2474.7133,-3517.9337)"
                 r="4736.8022" /><path
                 id="path53214"
                 style="fill:#222831;fill-opacity:1;stroke:none;stroke-width:1;stroke-linecap:round;stroke-linejoin:round;stroke-miterlimit:4;stroke-dasharray:none;stroke-opacity:1"
                 d="m 326.94486,1488.1583 c 4.5392,0.9924 9.05514,1.714 13.64303,2.4491 6.099,0.919 12.23024,1.6096 18.38086,2.0703 6.15068,0.4609 12.31645,0.6915 18.48437,0.6914 6.16793,1e-4 12.3337,-0.2305 18.48438,-0.6914 5.01143,-0.41 10.05265,-0.8742 15.02978,-1.5889 l -59.88916,-59.9423 0.76368,14.375 -33.72071,33.7207 z"
                 transform="matrix(9.9999998,0,0,-9.9999998,1.6944432e-5,5119.9999)"
                 sodipodi:nodetypes="ccsscccccc" /><path
                 id="path50890"
                 style="fill:#000000;fill-opacity:1;stroke:none;stroke-width:0.999998px;stroke-linecap:butt;stroke-linejoin:miter;stroke-opacity:1"
                 d="m 391.16211,1059.9453 0.084,-0.086 h -0.002 z"
                 transform="matrix(9.9999998,0,0,-9.9999998,1.6944432e-5,5119.9999)" /><path
                 id="path56512"
                 style="fill:#222831;fill-opacity:1;stroke:none;stroke-width:0.999998px;stroke-linecap:butt;stroke-linejoin:miter;stroke-opacity:1"
                 d="m 199.27734,1251.541 13.07422,-13.0742 -39.68945,-39.6895 -13.81055,12.3399 z"
                 transform="matrix(9.9999998,0,0,-9.9999998,1.6944432e-5,5119.9999)" /><path
                 id="path56508"
                 style="fill:#222831;fill-opacity:1;stroke:none;stroke-width:0.352766;stroke-linecap:round;stroke-linejoin:round;stroke-miterlimit:4;stroke-dasharray:none;stroke-opacity:1"
                 d="m 421.05382,1489.4967 c 11.16571,-1.8817 22.02975,-4.841 32.8329,-8.233 12.32374,-4.0042 24.31377,-8.9707 35.85937,-14.8535 11.5454,-5.8825 22.61071,-12.6631 33.09375,-20.2793 10.48296,-7.6163 20.35123,-16.0446 29.51368,-25.2071 9.16243,-9.1624 17.59071,-19.0307 25.20703,-29.5136 7.61616,-10.4831 14.39679,-21.5484 20.27929,-33.0938 5.88282,-11.5456 10.84928,-23.5356 14.85352,-35.8594 3.39907,-10.8207 6.34618,-21.6292 8.22991,-32.8137 l -229.76116,-229.698 -12.52539,13.3633 -0.8711,0.6426 -15.75,11.6074 2.63672,2.6719 10.54883,8.3535 -7.32812,7.3281 -9.25,-9.248 -38.75196,41.3437 57.67774,57.6777 -0.0957,52.336 -143.11328,-0.1738 -11.54296,-11.6407 -15.75,11.6075 -7.76954,5.7265 -7.97851,5.8809 170.29687,172.4629 0.006,0.01 z"
                 transform="matrix(9.9999998,0,0,-9.9999998,1.6944432e-5,5119.9999)"
                 sodipodi:nodetypes="ccsssssccccccccccccccccccccc" /><path
                 id="path55609"
                 style="fill:#222831;fill-opacity:1;stroke:none;stroke-width:0.999998px;stroke-linecap:butt;stroke-linejoin:miter;stroke-opacity:1"
                 d="m 622.84261,1277.0787 c 2.16052,-15.0635 1.95817,-31.0572 1.95817,-31.0572 -4.7e-4,-16.2015 -1.59275,-32.3638 -4.7539,-48.2539 0,0 -0.14622,-1.0264 -0.32413,-1.6045 l -183.83603,-183.7647 -39.9336,39.9356 z"
                 transform="matrix(9.9999998,0,0,-9.9999998,1.6944432e-5,5119.9999)"
                 sodipodi:nodetypes="ccccccc" /><g
                 id="g2619"
                 transform="matrix(0.56869868,0,0,0.56869868,929.35298,-7407.8045)"
                 style="fill:#00adb5;fill-opacity:1"><path
                   d="m 5869.3,4184.5 c -124.6,-72.8 -354.6,-304.7 -479.1,-484.9 l -95.8,-138 84.3,-92 c 65.2,-72.8 90.1,-88.2 115,-74.8 72.8,40.2 364.1,348.8 438.9,463.8 101.6,159.1 128.4,228.1 120.7,308.6 -7.7,86.3 -55.6,92.1 -184,17.3 z"
                   id="path6"
                   style="fill:#00adb5;fill-opacity:1" /><path
                   id="path8"
                   style="fill:#00adb5;fill-opacity:1;stroke-width:0.1"
                   d="m 500.88086,164.46094 c -5.56,0 -11.50117,1.33867 -14.95117,3.63867 -20.89,12.84 -24.52883,37.37117 -8.04883,55.20117 2.529,2.79302 3.32045,4.87943 3.16211,13.04102 h 0.0625 c 0,0 32.71835,169.95773 -20,222.59375 -53.65176,53.56796 -226.56641,20 -226.56641,20 l -6.18945,0.40429 -6.70899,-5.93945 c -12.84,-11.12 -28.55039,-12.46062 -41.40039,-3.64062 -9.58,6.33 -13.80117,13.42039 -14.95117,24.15039 -1.15,12.65 0.38188,17.82 7.67188,26.25 13.8,15.52 35.25906,16.47937 50.78906,2.10937 2.48693,-2.25185 4.62085,-3.01307 10.47852,-3.06836 v -0.0996 c 0,0 172.27148,-33.45204 225.57226,20 55.06074,55.21699 20,233.07813 20,233.07813 l -5.9414,6.13086 c -8.05001,8.24 -11.49969,21.45859 -8.42969,31.80859 4.79,15.91 17.24992,25.11133 33.91992,25.11133 25.1,0 41.39039,-27.02063 29.90039,-49.64063 -2.11,-3.83 -5.18094,-8.24007 -6.71094,-9.58007 -0.84507,-0.68361 -1.47247,-2.02118 -1.96484,-3.83008 h -1.11914 c 0,0 -34.81691,-176.85484 20,-231.64063 55.17981,-55.14848 233.18554,-20 233.18554,-20 l 6.12891,5.75 c 21.66,20.89 56.91992,4.98172 56.91992,-25.48828 0,-25.11 -27.01867,-41.40039 -49.63867,-29.90039 -3.83,2.11 -8.24008,5.16898 -9.58008,6.70899 -1.6924,2.08695 -7.05469,2.983 -16.52148,2.92968 v 0.10352 c 0,0 -166.89611,31.79225 -218.56836,-20 -53.01635,-53.13948 -20,-224.30078 -20,-224.30078 h 0.002 l -0.57226,-8.83203 5.93945,-6.12891 c 21.08,-21.85 4.98086,-56.91992 -25.86914,-56.91992 z"
                   transform="matrix(10,0,0,-10,0,5120)"
                   sodipodi:nodetypes="sccccscccccccccscccsccccsccsccccsccccs" /><path
                   d="m 4441.5,2793.2 c -268.3,-239.6 -452.3,-504 -460,-665 -3.8,-70.9 1.9,-80.5 38.3,-86.2 24.9,-3.8 86.2,17.3 139.9,46 109.2,59.4 394.8,346.9 505.9,509.8 l 74.7,111.2 -90.1,93.9 -88.1,95.8 z"
                   id="path10"
                   style="fill:#00adb5;fill-opacity:1" /><path
                   d="m 913.2,1171.8 c -17.2,-9.6 -30.7,-32.6 -30.7,-49.8 0,-113.1 287.5,-437 544.3,-615.2 l 141.8,-97.7 88.2,88.2 c 47.9,49.8 88.2,92 88.2,95.8 0,19.2 -230,258.7 -343.1,356.5 -184,160.9 -412,264.4 -488.7,222.2 z"
                   id="path16"
                   style="fill:#00adb5;fill-opacity:1" /><path
                   d="m 6934.8,1145 c -92,-92 218.5,-471.5 578.8,-709.1 l 86.2,-57.5 90.1,92 90.1,92 -116.9,130.3 C 7504,869 7341.1,1007 7210.8,1076 c -115,61.3 -251.1,95.8 -276,69 z"
                   id="path18"
                   style="fill:#00adb5;fill-opacity:1" /><path
                   d="m 2358.3,-200.4 c -26.8,-28.8 -69,-65.2 -93.9,-82.4 l -46,-28.7 109.2,-124.6 c 243.4,-272.1 515.5,-460 676.5,-465.7 70.9,-1.9 72.8,0 70.9,67.1 -1.9,84.3 -76.7,197.4 -231.9,352.6 -105.4,105.4 -396.7,335.4 -423.5,335.4 -7.7,-1.9 -34.5,-24.9 -61.3,-53.7 z"
                   id="path20"
                   style="fill:#00adb5;fill-opacity:1" /><path
                   d="m 8376,-244.5 c -36.4,-38.3 -80.5,-72.8 -95.8,-78.6 -24.9,-7.7 -23,-15.3 3.8,-55.6 57.5,-86.2 329.6,-346.9 440.8,-421.6 214.6,-145.7 398.6,-182.1 398.6,-78.6 0,115 -291.3,440.8 -542.4,611.4 l -138,92 z"
                   id="path22"
                   style="fill:#00adb5;fill-opacity:1" /><path
                   d="m 5873.1,-1825.5 c -138,-67.1 -396.7,-327.7 -538.5,-538.5 l -67.1,-99.6 82.4,-95.8 c 61.3,-70.9 90.1,-92 111.2,-78.6 67.1,34.5 377.5,360.3 444.6,467.6 82.4,124.6 143.7,297.1 126.5,345 -15.4,38.2 -82.5,38.2 -159.1,-0.1 z"
                   id="path26"
                   style="fill:#00adb5;fill-opacity:1" /><path
                   d="m 4403.1,-3245.7 c -241.5,-220.4 -373.7,-394.8 -438.9,-576.9 -38.3,-109.2 -24.9,-176.3 38.3,-176.3 113.1,0 437,287.5 615.2,544.3 l 97.8,141.8 -46,30.7 c -26.8,15.3 -63.2,55.6 -80.5,88.2 -19.2,30.7 -42.1,57.5 -49.8,57.5 -7.7,0 -69,-49.8 -136.1,-109.3 z"
                   id="path28"
                   style="fill:#00adb5;fill-opacity:1;stroke:none" /></g><path
                 style="fill:#000000;fill-opacity:1;stroke:none;stroke-width:19.2037px;stroke-linecap:butt;stroke-linejoin:miter;stroke-opacity:1"
                 d="M 8426.0089,-7559.1228 11696.442,-10871.176"
                 id="path51121"
                 transform="matrix(0.5207319,0,0,0.5207319,-2474.7133,-3517.9337)" /><path
                 style="fill:none;fill-opacity:1;stroke-width:1.25;stroke-linecap:round;stroke-linejoin:round"
                 d="m 300.92227,1352.3137 c -31.64182,-31.6401 -57.47192,-57.5275 -57.40022,-57.5276 0.0717,-10e-5 1.23542,0.7729 2.58603,1.7178 4.82201,3.3736 10.07858,6.0425 13.89244,7.0535 1.43687,0.381 2.82463,0.5525 4.53004,0.56 2.2906,0.01 2.49125,-0.03 2.93669,-0.58 0.37199,-0.4597 0.47755,-0.9892 0.4756,-2.3856 -0.003,-2.3013 -0.52154,-4.278 -1.76729,-6.7398 -0.54718,-1.0814 -0.99497,-2.0369 -0.99509,-2.1233 -3.1e-4,-0.2162 66.49105,66.0766 85.91257,85.656 l 15.78349,15.9118 -0.56332,3.317 -0.56332,3.3169 -2.18625,2.3045 c -2.24227,2.3636 -3.35161,3.821 -4.47202,5.8751 l -0.63877,1.1711 z"
                 id="path44280"
                 transform="matrix(10,0,0,-10,0,5120)" /></g></g></g></g></g></g></g>
</svg>
